# Blender 4.3.2
# www.blender.org
mtllib AOCube.mtl
o Cube
v 0.427667 0.879887 -0.879887
v 0.427667 -0.879887 -0.879887
v 0.427667 0.879887 0.879887
v 0.427667 -0.879887 0.879887
v -1.000000 1.000000 -1.000000
v -1.000000 -1.000000 -1.000000
v -1.000000 1.000000 1.000000
v -1.000000 -1.000000 1.000000
v 1.000000 1.000000 -1.000000
v 1.000000 -1.000000 -1.000000
v 1.000000 1.000000 1.000000
v 1.000000 -1.000000 1.000000
v 1.000000 0.889886 -0.889886
v 1.000000 -0.889886 -0.889886
v 1.000000 0.889886 0.889886
v 1.000000 -0.889886 0.889886
vn -0.0000 1.0000 -0.0000
vn -0.0000 -0.0000 1.0000
vn -1.0000 -0.0000 -0.0000
vn -0.0000 -1.0000 -0.0000
vn 1.0000 -0.0000 -0.0000
vn -0.0000 -0.0000 -1.0000
vn 0.0175 -0.0000 0.9998
vn 0.0175 -0.0000 -0.9998
vn 0.0175 -0.9998 -0.0000
vn 0.0175 0.9998 -0.0000
vt 0.666671 0.333342
vt 0.333342 0.333342
vt 0.333342 0.000000
vt 0.666671 0.000000
vt 0.666671 0.333342
vt 0.666671 0.000000
vt 1.000000 0.000000
vt 1.000000 0.333342
vt 0.333342 0.333342
vt 0.000000 0.333342
vt 0.000000 0.000000
vt 0.333342 0.000000
vt 0.666671 0.666684
vt 0.333342 0.666684
vt 0.333342 0.333342
vt 0.666671 0.333342
vt 0.293303 0.959987
vt -0.000000 0.959987
vt 0.000000 0.666684
vt 0.293303 0.666684
vt 0.666671 0.666684
vt 1.000000 0.666684
vt 0.018353 0.648331
vt 0.314989 0.648331
vt 0.333342 0.666684
vt 0.000000 0.666684
vt 0.314989 0.351695
vt 0.018353 0.351695
vt 0.000000 0.333342
vt 0.333342 0.333342
vt 0.579509 0.668350
vt 0.579509 0.961653
vt 0.484107 0.963320
vt 0.484107 0.666684
vt 0.674912 0.666684
vt 0.674912 0.963320
vt 0.388705 0.668350
vt 0.388705 0.961653
vt 0.293303 0.963320
vt 0.293303 0.666684
vt 0.388705 0.961653
vt 0.388705 0.668350
vt 0.484107 0.666684
vt 0.484107 0.963320
s 0
usemtl Material
f 9/1/1 5/2/1 7/3/1 11/4/1
f 12/5/2 11/6/2 7/7/2 8/8/2
f 8/9/3 7/10/3 5/11/3 6/12/3
f 6/13/4 10/14/4 12/15/4 8/16/4
f 2/17/5 1/18/5 3/19/5 4/20/5
f 6/21/6 5/5/6 9/8/6 10/22/6
f 13/23/5 14/24/5 10/25/5 9/26/5
f 16/27/5 15/28/5 11/29/5 12/30/5
f 15/28/5 13/23/5 9/26/5 11/29/5
f 14/24/5 16/27/5 12/30/5 10/25/5
f 1/31/7 2/32/7 14/33/7 13/34/7
f 4/32/8 3/31/8 15/35/8 16/36/8
f 3/37/9 1/38/9 13/39/9 15/40/9
f 2/41/10 4/42/10 16/43/10 14/44/10
