# Blender 4.3.2
# www.blender.org
mtllib cubeRounded.mtl
o Cube
v 0.896513 0.896513 -1.000000
v 0.896513 1.000000 -0.896513
v 1.000000 0.896513 -0.896513
v 0.896513 -1.000000 -0.896513
v 0.896513 -0.896513 -1.000000
v 1.000000 -0.896513 -0.896513
v 1.000000 0.896513 0.896513
v 0.896513 1.000000 0.896513
v 0.896513 0.896513 1.000000
v 1.000000 -0.896513 0.896513
v 0.896513 -0.896513 1.000000
v 0.896513 -1.000000 0.896513
v -0.896513 0.896513 -1.000000
v -1.000000 0.896513 -0.896513
v -0.896513 1.000000 -0.896513
v -1.000000 -0.896513 -0.896513
v -0.896513 -0.896513 -1.000000
v -0.896513 -1.000000 -0.896513
v -1.000000 0.896513 0.896513
v -0.896513 0.896513 1.000000
v -0.896513 1.000000 0.896513
v -0.896513 -1.000000 0.896513
v -0.896513 -0.896513 1.000000
v -1.000000 -0.896513 0.896513
vn 0.3416 0.3416 -0.8756
vn 0.3416 0.8756 -0.3416
vn 0.8756 0.3416 -0.3416
vn 0.3416 -0.8756 -0.3416
vn 0.3416 -0.3416 -0.8756
vn 0.8756 -0.3416 -0.3416
vn 0.8756 0.3416 0.3416
vn 0.3416 0.8756 0.3416
vn 0.3416 0.3416 0.8756
vn 0.8756 -0.3416 0.3416
vn 0.3416 -0.3416 0.8756
vn 0.3416 -0.8756 0.3416
vn -0.3416 0.3416 -0.8756
vn -0.8756 0.3416 -0.3416
vn -0.3416 0.8756 -0.3416
vn -0.8756 -0.3416 -0.3416
vn -0.3416 -0.3416 -0.8756
vn -0.3416 -0.8756 -0.3416
vn -0.8756 0.3416 0.3416
vn -0.3416 0.3416 0.8756
vn -0.3416 0.8756 0.3416
vn -0.3416 -0.8756 0.3416
vn -0.3416 -0.3416 0.8756
vn -0.8756 -0.3416 0.3416
vt 0.719682 0.019114
vt 0.719682 0.350284
vt 0.388512 0.350284
vt 0.388512 0.019114
vt 0.000000 0.845661
vt 0.000000 0.514491
vt 0.234173 0.514491
vt 0.234173 0.845661
vt 0.019114 0.261204
vt 0.350284 0.261204
vt 0.350284 0.495377
vt 0.019114 0.495377
vt 0.719682 0.388512
vt 0.719682 0.719682
vt 0.388512 0.719682
vt 0.388512 0.388512
vt 0.019114 0.000000
vt 0.350284 0.000000
vt 0.350284 0.234173
vt 0.019114 0.234173
vt 0.972969 0.019114
vt 0.986484 0.000000
vt 1.000000 0.019114
vt 0.986484 0.369398
vt 0.972969 0.350284
vt 1.000000 0.350284
vt 0.369398 0.247688
vt -0.000000 0.247688
vt 0.261204 0.514491
vt 0.247688 0.495377
vt 0.261204 0.845661
vt 0.247688 0.864775
vt 0.765827 0.388512
vt 0.738796 0.388512
vt 0.752312 0.369398
vt 0.752312 0.738796
vt 0.738796 0.719682
vt 0.765827 0.719682
vt 0.388512 0.000000
vt 0.719682 0.000000
vt 0.738796 0.019114
vt 0.738796 0.350284
vt 0.369398 0.719682
vt 0.369398 0.388512
vt 0.388512 0.369398
vt 0.719682 0.369398
vt 0.369398 0.350284
vt 0.369398 0.019114
vt 0.719682 0.738796
vt 0.388512 0.738796
vt 0.738796 0.388512
vt 0.738796 0.719682
vt 0.719682 0.369398
vt 0.388512 0.369398
vt 0.738796 0.350284
vt 0.738796 0.019114
s 1
usemtl Material
f 18/1/18 4/2/4 12/3/12 22/4/22
f 24/5/24 19/6/19 14/7/14 16/8/16
f 11/9/11 9/10/9 20/11/20 23/12/23
f 2/13/2 15/14/15 21/15/21 8/16/8
f 6/17/6 3/18/3 7/19/7 10/20/10
f 1/21/1 2/22/2 3/23/3
f 4/24/4 5/25/5 6/26/6
f 7/19/7 8/27/8 9/10/9
f 10/20/10 11/9/11 12/28/12
f 13/29/13 14/7/14 15/30/15
f 16/8/16 17/31/17 18/32/18
f 19/33/19 20/34/20 21/35/21
f 22/36/22 23/37/23 24/38/24
f 18/1/18 22/4/22 24/39/24 16/40/16
f 4/2/4 18/1/18 17/41/17 5/42/5
f 3/23/3 6/26/6 5/25/5 1/21/1
f 23/37/23 20/34/20 19/33/19 24/38/24
f 9/10/9 11/9/11 10/20/10 7/19/7
f 13/29/13 17/31/17 16/8/16 14/7/14
f 8/16/8 21/15/21 20/43/20 9/44/9
f 2/13/2 8/16/8 7/45/7 3/46/3
f 22/4/22 12/3/12 11/47/11 23/48/23
f 21/15/21 15/14/15 14/49/14 19/50/19
f 15/14/15 2/13/2 1/51/1 13/52/13
f 12/3/12 4/2/4 6/53/6 10/54/10
f 17/55/17 13/56/13 1/21/1 5/25/5
